<svg role="img" viewBox="0 0 24 24" xmlns="http://www.w3.org/2000/svg">
<title>LinkedIn</title>
<path d="M20.447 20.452h-3.554v-5.569c0-1.328-.025-3.036-1.848-3.036-1.849 0-2.131 1.445-2.131 2.94v5.665H9.36V9h3.414v1.561h.048c.476-.9 1.637-1.848 3.369-1.848 3.602 0 4.268 2.37 4.268 5.455v6.284zM5.337 7.433c-1.144 0-2.069-.926-2.069-2.069 0-1.144.925-2.069 2.069-2.069 1.144 0 2.069.925 2.069 2.069 0 1.143-.925 2.069-2.069 2.069zM6.814 20.452H3.861V9h2.953v11.452zM22.225 0H1.771C.792 0 0 .774 0 1.729v20.542C0 23.226.792 24 1.771 24h20.451C23.2 24 24 23.226 24 22.271V1.729C24 .774 23.2 0 22.222 0z"/>
</svg>